<?xml version="1.0" encoding="UTF-8" standalone="no"?>
<!-- Created with Inkscape (http://www.inkscape.org/) -->

<svg
   xmlns:dc="http://purl.org/dc/elements/1.1/"
   xmlns:cc="http://creativecommons.org/ns#"
   xmlns:rdf="http://www.w3.org/1999/02/22-rdf-syntax-ns#"
   xmlns:svg="http://www.w3.org/2000/svg"
   xmlns="http://www.w3.org/2000/svg"
   xmlns:sodipodi="http://sodipodi.sourceforge.net/DTD/sodipodi-0.dtd"
   xmlns:inkscape="http://www.inkscape.org/namespaces/inkscape"
   id="svg3116"
   version="1.1"
   inkscape:version="0.92.1 r15371"
   width="71.123154"
   height="53.331944"
   sodipodi:docname="const5_w.svg">
  <metadata
     id="metadata3122">
    <rdf:RDF>
      <cc:Work
         rdf:about="">
        <dc:format>image/svg+xml</dc:format>
        <dc:type
           rdf:resource="http://purl.org/dc/dcmitype/StillImage" />
        <dc:title />
      </cc:Work>
    </rdf:RDF>
  </metadata>
  <defs
     id="defs3120" />
  <sodipodi:namedview
     pagecolor="#ffffff"
     bordercolor="#666666"
     borderopacity="1"
     objecttolerance="10"
     gridtolerance="10"
     guidetolerance="10"
     inkscape:pageopacity="0"
     inkscape:pageshadow="2"
     inkscape:window-width="1160"
     inkscape:window-height="759"
     id="namedview3118"
     showgrid="false"
     fit-margin-top="0"
     fit-margin-left="0"
     fit-margin-right="0"
     fit-margin-bottom="0"
     inkscape:zoom="0.57281553"
     inkscape:cx="-394.27213"
     inkscape:cy="172.60946"
     inkscape:window-x="0"
     inkscape:window-y="0"
     inkscape:window-maximized="0"
     inkscape:current-layer="svg3116" />
  <path
     style="fill:#ffffff;fill-opacity:1;stroke:#ffffff;stroke-width:0.93158656;stroke-linejoin:round;stroke-miterlimit:4;stroke-dasharray:none;stroke-opacity:1"
     d="M 2.9810148,52.522656 C 2.6180223,52.352608 1.9348355,51.806133 1.4628214,51.308256 0.50687211,50.299936 0.22872572,49.649227 0.67970114,49.476171 c 0.33459016,-0.128395 0.53989056,0.02283 1.67007466,1.230432 0.9364318,1.000554 1.620823,1.307498 2.9153189,1.307498 1.3316137,0 3.7510353,-1.087104 4.6275767,-2.079285 l 0.3481956,-0.394133 0.654715,0.573728 c 1.317327,1.154368 3.926401,1.677109 5.536916,1.109354 1.174305,-0.413973 2.718756,-1.403509 3.087068,-1.977898 0.15842,-0.247062 0.587944,-0.857568 0.954497,-1.356683 0.366552,-0.499115 0.768924,-1.110411 0.894158,-1.358443 0.125232,-0.248021 0.36534,-0.598688 0.53357,-0.779264 0.168228,-0.180576 0.484801,-0.664842 0.703492,-1.076138 0.218694,-0.411307 0.760727,-1.248608 1.204519,-1.860683 1.184979,-1.634293 3.673213,-5.637931 3.673213,-5.910304 0,-0.129216 0.06559,-0.234944 0.145754,-0.234944 0.08016,0 0.189381,-0.129931 0.242705,-0.288736 0.110796,-0.329973 0.424036,-0.831136 0.724321,-1.158848 0.249355,-0.272139 1.292659,-2.052341 2.03172,-3.466752 0.297996,-0.570304 0.698194,-1.201419 0.889328,-1.402475 0.414572,-0.436085 1.246066,-1.546549 1.246066,-1.664128 0,-0.134965 1.691136,-2.777472 2.209215,-3.452042 0.262212,-0.341408 0.447832,-0.64752 0.41249,-0.680246 -0.03534,-0.03275 -2.514457,-0.107946 -5.509146,-0.167168 -2.994689,-0.0592 -6.113127,-0.175488 -6.929861,-0.258389 -0.816731,-0.08288 -2.190329,-0.139968 -3.052437,-0.126805 -1.394687,0.02133 -1.658406,-0.02347 -2.392451,-0.406262 -1.140434,-0.594677 -2.420785,-1.58305 -3.093042,-2.38768 -0.704893,-0.843712 -1.820063,-2.974538 -2.185017,-4.175061 -0.151727,-0.499115 -0.354161,-1.093109 -0.449853,-1.319979 -0.495218,-1.174101 -0.42259,-5.441045 0.134594,-7.9071996 0.384205,-1.700544 1.963435,-4.1755946 3.410209,-5.3446506 1.464615,-1.1834774 3.983668,-1.66430933 5.436148,-1.037664 0.742283,0.3202453 1.779359,1.3218026 1.779359,1.7184106 0,0.3547627 1.178254,2.055904 3.513542,5.0727894 0.979594,1.265504 2.204694,2.8640322 2.722445,3.5522772 0.517751,0.688245 1.350697,1.764843 1.85099,2.392448 0.500292,0.627605 1.199666,1.586592 1.554163,2.131083 1.125666,1.72897 3.877427,5.362389 4.061192,5.362389 0.09728,0 0.140998,-0.05803 0.09716,-0.128949 -0.04383,-0.07093 -0.12314,-1.166091 -0.176241,-2.433707 -0.121815,-2.908 -0.227707,-5.367765 -0.344272,-7.997131 -0.05029,-1.1343569 -0.122317,-3.7422076 -0.160063,-5.7952316 -0.05523,-3.0041386 -0.02401,-3.793216 0.159978,-4.0424213 0.557583,-0.75522129 0.667436,0.3005013 0.826218,7.940192 0.08761,4.2153599 0.190093,6.9608639 0.394168,10.5597869 L 37.135311,21.572224 37.67155,20.8 c 0.294932,-0.424715 0.53624,-0.882581 0.53624,-1.017472 0,-0.134901 0.05973,-0.270016 0.132747,-0.300267 0.173464,-0.07189 2.03825,-2.77744 1.914318,-2.77744 -0.05216,0 0.123406,-0.278432 0.390146,-0.618741 0.266739,-0.340309 0.578296,-0.804363 0.692349,-1.031232 0.184591,-0.367179 1.220246,-1.985941 2.480702,-3.877419 0.241896,-0.362986 0.490474,-0.799146 0.552396,-0.969226 0.134927,-0.3706029 1.842364,-3.1570029 2.275949,-3.7141762 0.168419,-0.2164267 0.306214,-0.534592 0.306214,-0.70704 0,-0.3953174 0.326276,-0.9114667 1.494605,-2.3643947 0.510807,-0.6352427 1.020957,-1.3290347 1.133666,-1.5417707 0.147253,-0.2779413 0.301591,-0.3615146 0.548402,-0.2969706 0.192181,0.05024 0.713595,-0.085227 1.18375,-0.3076907 1.207956,-0.57145596 2.45737,-0.79585063 3.886079,-0.69791996 1.575165,0.107968 2.204828,0.37714133 3.156058,1.34919466 l 0.760275,0.7769173 0.559699,-0.5214613 c 0.73457,-0.684384 2.052312,-1.28549333 3.46269,-1.57956266 1.321166,-0.27547733 2.186739,-0.184704 3.390824,0.355584 0.83817,0.37608526 2.038512,1.29617066 2.038512,1.56254926 0,0.075413 0.08586,0.346176 0.190795,0.6016427 0.29995,0.7302187 0.329561,1.1619307 0.08611,1.2553493 -0.336057,0.12896 -0.5161,-0.048747 -0.961678,-0.9493866 -0.42227,-0.8534827 -1.104436,-1.3703787 -2.58195,-1.956384 -1.566153,-0.62116266 -4.648046,0.4057706 -5.889091,1.962336 L 58.94875,4.0152428 58.478069,3.5642988 C 58.219197,3.3162774 58.007247,3.0344321 58.007072,2.9379841 58.006606,2.6582934 56.455488,1.6778881 55.757177,1.5158614 c -1.444133,-0.3350826 -4.070402,0.083627 -4.742899,0.7560747 -0.133743,0.1337493 -0.30416,0.243616 -0.378701,0.2441493 -0.210242,0.00107 -1.737583,1.774688 -2.197992,2.5517547 -0.785392,1.3255573 -1.074523,1.7713387 -1.526219,2.35312 -0.249557,0.3214293 -0.45374,0.6715733 -0.45374,0.7781013 0,0.10656 -0.136232,0.3399254 -0.302734,0.5186454 -0.275181,0.2953706 -1.307743,1.9077012 -1.984944,3.0994662 -0.148375,0.26111 -0.668307,1.038838 -1.155406,1.728288 -0.4871,0.689451 -0.924245,1.354155 -0.971436,1.477131 -0.09061,0.236117 -1.12725,1.935872 -2.748786,4.507115 -1.453431,2.304682 -2.088884,3.581653 -1.857175,3.732074 0.494716,0.321163 11.753152,-0.08267 15.126108,-0.542528 1.276622,-0.174069 6.10251,1.211968 8.361591,2.401515 3.062562,1.612629 3.767094,2.175915 6.128102,4.899563 1.067473,1.231445 2.423803,3.660149 2.6075,4.66912 0.05782,0.317621 0.177724,0.717685 0.266435,0.889045 0.08872,0.17136 0.184899,0.505483 0.213747,0.742485 0.02884,0.237014 0.172058,1.136288 0.318247,1.9984 0.180107,1.062155 0.228193,1.913206 0.149156,2.639947 -0.125915,1.15776 -0.154835,1.358144 -0.21433,1.484971 -0.02128,0.04533 -0.07307,0.292746 -0.115078,0.549717 -0.06958,0.425579 -0.909996,2.146549 -1.866785,3.822688 -0.737951,1.292779 -1.750973,2.540939 -2.328587,2.869088 -0.322554,0.183253 -0.779655,0.512224 -1.015776,0.731061 -0.936534,0.867947 -2.159488,1.251808 -3.512657,1.102539 -0.272244,-0.03008 -0.743088,0.0021 -1.046321,0.07147 -0.513203,0.117365 -0.598782,0.07211 -1.237475,-0.65519 C 58.893644,50.505966 57.513331,48.97324 56.203664,47.529603 54.893995,46.085976 53.668895,44.692867 53.481219,44.433806 53.293542,44.174755 52.620251,43.372131 51.985013,42.65019 51.349776,41.928259 50.164092,40.528547 49.350159,39.539736 48.536227,38.550915 47.454845,37.259267 46.947092,36.6694 46.439338,36.079544 45.492158,34.891566 44.842247,34.029454 44.192337,33.167352 43.392018,32.164995 43.063758,31.801998 42.353831,31.016963 41.43598,29.94476 40.570133,28.889059 c -1.74374,-2.126101 -3.064968,-3.616779 -3.139542,-3.542208 -0.09194,0.09195 0.168234,4.775051 0.528188,9.507595 0.127691,1.678837 0.282184,3.794922 0.343315,4.7024 0.06113,0.907477 0.134658,1.984085 0.163393,2.392448 0.02874,0.408373 0.09156,1.559221 0.139615,2.55745 0.04805,0.99823 0.135052,2.797931 0.193326,3.999328 0.09494,1.957419 0.07701,2.195467 -0.172636,2.291264 -0.608727,0.23359 -0.710553,-0.226677 -0.807623,-3.650645 -0.08868,-3.128213 -0.498456,-10.595104 -0.679102,-12.374752 -0.154411,-1.521163 -0.232249,-2.621344 -0.414409,-5.857376 -0.199622,-3.546272 -0.282499,-4.289909 -0.478096,-4.289909 -0.07222,0 -0.592184,0.761045 -1.155471,1.69121 -0.563286,0.930166 -1.261877,2.039915 -1.552423,2.466091 -1.26012,1.848373 -2.353517,3.709333 -3.422446,5.824992 -0.183401,0.362987 -0.734749,1.291093 -1.225216,2.062453 -0.490467,0.77136 -1.076367,1.741259 -1.302002,2.155328 -0.225632,0.414059 -0.527408,0.85008 -0.670608,0.968928 -0.143202,0.118848 -0.260367,0.278614 -0.260367,0.35504 0,0.07637 -0.225548,0.457131 -0.501216,0.846027 -0.275668,0.388896 -0.702596,1.004075 -0.94873,1.367061 -0.246133,0.362998 -0.688823,0.981238 -0.983754,1.373867 -0.294933,0.392629 -0.53624,0.791915 -0.53624,0.887296 0,0.09536 -0.360553,0.66512 -0.80123,1.266091 -0.440677,0.60096 -1.256774,1.775658 -1.813546,2.610432 -1.233687,1.849696 -2.162917,2.854634 -2.639568,2.854634 -0.195548,0 -0.355541,0.06144 -0.355541,0.136438 0,0.07509 -0.599983,0.345301 -1.333295,0.600576 -1.167944,0.40657 -1.483617,0.451424 -2.545382,0.361674 C 12.907922,52.343605 11.066701,51.7384 10.377973,51.196651 L 9.9599346,50.867819 9.4341893,51.268821 c -0.28916,0.220555 -1.2069455,0.664086 -2.0395219,0.985632 -1.8006397,0.695403 -3.3063924,0.786902 -4.4136568,0.268192 z M 63.108051,50.248245 c 1.208339,-0.483413 3.16766,-1.948874 3.926155,-2.936554 0.824438,-1.073536 1.881298,-3.169846 2.148864,-4.262315 0.762974,-3.115243 0.170865,-7.999125 -1.281723,-10.572021 -0.943224,-1.670678 -3.322356,-4.257152 -4.861555,-5.285238 -0.961102,-0.641962 -4.086306,-2.161877 -4.793905,-2.331477 -0.267293,-0.06411 -0.560236,-0.171925 -0.650985,-0.23968 -0.09075,-0.06773 -0.424866,-0.175339 -0.742484,-0.239061 -0.317619,-0.06368 -1.04919,-0.257867 -1.625715,-0.431424 -1.099529,-0.331008 -1.062062,-0.331456 -7.614096,0.09195 -0.589864,0.03808 -2.965814,0.119371 -5.279893,0.180555 -2.314078,0.06123 -4.234504,0.135627 -4.267614,0.165419 -0.0741,0.06667 1.036783,1.408096 3.553584,4.291061 2.830701,3.242528 3.590215,4.139968 4.219227,4.98544 1.388489,1.866315 3.174192,4.091445 3.867711,4.819477 0.389007,0.408363 1.089962,1.225099 1.55768,1.814966 0.467717,0.589866 1.398877,1.656202 2.069249,2.369642 0.670371,0.71344 1.829395,2.042816 2.575608,2.954155 0.746212,0.911349 2.051386,2.418069 2.900384,3.348288 l 1.54363,1.691296 0.843598,0.0064 c 0.535889,0.0043 1.233404,-0.149408 1.91228,-0.421003 z M 32.102923,23.238432 c 1.315847,-0.05803 2.74513,-0.03925 3.176185,0.0416 0.489415,0.09184 0.783734,0.088 0.783734,-0.0096 0,-0.08651 -0.501178,-0.81488 -1.113727,-1.618731 -0.612551,-0.80384 -1.373598,-1.84289 -1.691216,-2.308992 -1.418744,-2.081994 -2.525574,-3.578741 -4.020357,-5.43664 C 28.614439,13.131595 27.857103,12.126699 27.554573,11.67296 27.092932,10.980576 26.11662,9.6664748 25.286766,8.6205228 25.178767,8.4843948 24.733623,7.8904108 24.297554,7.3005441 23.861488,6.7106774 23.402394,6.1030294 23.277346,5.9502081 23.152297,5.7973974 22.915854,5.4632748 22.751919,5.2077228 22.349206,4.5799681 21.458538,3.4045121 20.822944,2.6619628 c -0.649679,-0.759008 -1.637599,-0.96352 -3.053022,-0.6320107 -1.118404,0.2619307 -1.856541,0.7063787 -2.765001,1.6648427 -0.718173,0.7577066 -1.876613,2.38496 -1.876613,2.6360853 0,0.0816 -0.141359,0.4630187 -0.314132,0.847712 -0.172771,0.3846933 -0.363254,1.0706773 -0.423295,1.5244267 -0.06004,0.4537386 -0.135937,1.0106026 -0.168659,1.237472 -0.03273,0.2268692 -0.07336,1.2292262 -0.09029,2.2274562 -0.05563,3.278389 1.031154,6.24385 3.118384,8.509045 1.690049,1.834133 2.319681,2.120107 5.254529,2.38656 1.319586,0.119808 3.852497,0.22544 5.628691,0.234741 1.776195,0.0096 3.2623,0.04981 3.302456,0.08992 0.04016,0.04011 0.118342,0.04672 0.173748,0.01461 0.0554,-0.03211 1.177336,-0.105814 2.493185,-0.163872 z"
     id="path5079"
     inkscape:connector-curvature="0" />
</svg>
